<?xml version="1.0" encoding="UTF-8" standalone="no"?>
<!DOCTYPE svg PUBLIC "-//W3C//DTD SVG 1.1//EN" "http://www.w3.org/Graphics/SVG/1.1/DTD/svg11.dtd">
<svg width="100%" height="100%" viewBox="0 0 16 16" version="1.1" xmlns="http://www.w3.org/2000/svg" xmlns:xlink="http://www.w3.org/1999/xlink" xml:space="preserve" xmlns:serif="http://www.serif.com/" style="fill-rule:evenodd;clip-rule:evenodd;stroke-linejoin:round;stroke-miterlimit:2;">
    <g transform="matrix(1,0,0,1,-198.983,-99)">
        <g id="Kartalla-favicon" serif:id="Kartalla favicon" transform="matrix(0.275862,0,0,0.340181,-739.499,-1579.11)">
            <rect x="3402" y="4933" width="58" height="47" style="fill:none;"/>
            <clipPath id="_clip1">
                <rect x="3402" y="4933" width="58" height="47"/>
            </clipPath>
            <g clip-path="url(#_clip1)">
                <g id="Shape-source" serif:id="Shape source" transform="matrix(3.625,0,0,2.93961,-8941.13,-9576.93)">
                    <path d="M3421,4942L3421,4944.01C3421,4946.13 3420.16,4948.16 3418.66,4949.66C3417.16,4951.16 3415.13,4952 3413.01,4952L3412.99,4952C3410.87,4952 3408.84,4951.16 3407.34,4949.66C3405.84,4948.16 3405,4946.13 3405,4944.01L3405,4942L3409.02,4942L3409.01,4948C3409.01,4948.55 3409.45,4949 3410.01,4949C3414.51,4949 3417.75,4946.44 3419.02,4942L3421,4942Z" style="fill:rgb(0,156,137);"/>
                </g>
                <g transform="matrix(7.875,0,0,1.62617,-23397.7,-3103.59)">
                    <path d="M3403.14,4949.27L3403.14,4944.82C3403.14,4943.28 3403.46,4942.04 3403.85,4942.04L3409.8,4942.04C3410.19,4942.04 3410.5,4943.28 3410.5,4944.82L3410.5,4949.27C3409.98,4949.27 3411.69,4949.27 3409.03,4949.27C3408.82,4949.27 3408.63,4949.85 3408.58,4950.67C3408.21,4957.03 3407.38,4961.16 3405.91,4961.92L3405.91,4951.08C3405.91,4950.08 3405.7,4949.27 3405.45,4949.27L3403.14,4949.27Z" style="fill:rgb(0,194,170);"/>
                </g>
            </g>
        </g>
    </g>
</svg>
